<svg width="64" height="64" viewBox="0 0 64 64" fill="none" xmlns="http://www.w3.org/2000/svg">
  <defs>
    <linearGradient id="bgGradient64" x1="0%" y1="0%" x2="100%" y2="100%">
      <stop offset="0%" style="stop-color:#3b82f6;stop-opacity:1" />
      <stop offset="25%" style="stop-color:#2563eb;stop-opacity:1" />
      <stop offset="75%" style="stop-color:#1d4ed8;stop-opacity:1" />
      <stop offset="100%" style="stop-color:#1e40af;stop-opacity:1" />
    </linearGradient>
    <linearGradient id="textGradient64" x1="0%" y1="0%" x2="100%" y2="100%">
      <stop offset="0%" style="stop-color:#ffffff;stop-opacity:1" />
      <stop offset="100%" style="stop-color:#e2e8f0;stop-opacity:1" />
    </linearGradient>
    <filter id="shadow64" x="-20%" y="-20%" width="140%" height="140%">
      <feDropShadow dx="0" dy="2" stdDeviation="1" flood-color="#1e3a8a" flood-opacity="0.4"/>
    </filter>
    <filter id="innerShadow" x="-50%" y="-50%" width="200%" height="200%">
      <feGaussianBlur in="SourceAlpha" stdDeviation="1"/>
      <feOffset dx="0" dy="1" result="offset"/>
      <feFlood flood-color="#1e40af" flood-opacity="0.3"/>
      <feComposite in2="offset" operator="in"/>
      <feMerge>
        <feMergeNode/>
        <feMergeNode in="SourceGraphic"/>
      </feMerge>
    </filter>
  </defs>
  
  <!-- Fundo principal -->
  <rect width="64" height="64" rx="12" ry="12" fill="url(#bgGradient64)" filter="url(#shadow64)"/>
  
  <!-- Elementos decorativos de fundo -->
  <circle cx="52" cy="12" r="3" fill="#ffffff" opacity="0.1"/>
  <circle cx="12" cy="52" r="2" fill="#ffffff" opacity="0.08"/>
  <rect x="8" y="8" width="48" height="48" rx="8" fill="#ffffff" opacity="0.03"/>
  
  <!-- Texto ITV com alta qualidade -->
  <g font-family="system-ui, -apple-system, sans-serif" font-weight="800" fill="url(#textGradient64)" filter="url(#innerShadow)">
    <!-- Letra I -->
    <rect x="12" y="16" width="5" height="32" rx="2"/>
    <rect x="10" y="16" width="9" height="4" rx="2"/>
    <rect x="10" y="44" width="9" height="4" rx="2"/>
    
    <!-- Letra T -->
    <rect x="24" y="16" width="14" height="5" rx="2"/>
    <rect x="28.5" y="20" width="5" height="28" rx="2"/>
    
    <!-- Letra V -->
    <polygon points="44,16 49,16 54,40 58,16 62,16 55,48 51,48" />
  </g>
  
  <!-- Efeito de brilho sutil -->
  <rect x="0" y="0" width="64" height="20" rx="12" fill="url(#textGradient64)" opacity="0.1"/>
</svg>