<svg width="32" height="32" viewBox="0 0 32 32" fill="none" xmlns="http://www.w3.org/2000/svg">
  <!-- Background com gradiente moderno -->
  <defs>
    <linearGradient id="bgGradient" x1="0%" y1="0%" x2="100%" y2="100%">
      <stop offset="0%" style="stop-color:#3b82f6;stop-opacity:1" />
      <stop offset="50%" style="stop-color:#2563eb;stop-opacity:1" />
      <stop offset="100%" style="stop-color:#1d4ed8;stop-opacity:1" />
    </linearGradient>
    <linearGradient id="textGradient" x1="0%" y1="0%" x2="100%" y2="100%">
      <stop offset="0%" style="stop-color:#ffffff;stop-opacity:1" />
      <stop offset="100%" style="stop-color:#f1f5f9;stop-opacity:1" />
    </linearGradient>
    <!-- Sombra suave -->
    <filter id="shadow" x="-20%" y="-20%" width="140%" height="140%">
      <feDropShadow dx="0" dy="1" stdDeviation="0.5" flood-color="#1e3a8a" flood-opacity="0.3"/>
    </filter>
  </defs>
  
  <!-- Fundo com bordas arredondadas -->
  <rect width="32" height="32" rx="6" ry="6" fill="url(#bgGradient)" filter="url(#shadow)"/>
  
  <!-- Texto ITV estilizado -->
  <g font-family="system-ui, -apple-system, sans-serif" font-weight="700" fill="url(#textGradient)">
    <!-- Letra I -->
    <rect x="6" y="8" width="2.5" height="16" rx="1"/>
    <rect x="5" y="8" width="4.5" height="2" rx="1"/>
    <rect x="5" y="22" width="4.5" height="2" rx="1"/>
    
    <!-- Letra T -->
    <rect x="12" y="8" width="7" height="2.5" rx="1"/>
    <rect x="14.25" y="10" width="2.5" height="14" rx="1"/>
    
    <!-- Letra V -->
    <polygon points="22,8 24.5,8 27,20 29,8 31,8 27.5,24 25.5,24" />
  </g>
  
  <!-- Elemento decorativo sutil -->
  <circle cx="28" cy="4" r="1.5" fill="#ffffff" opacity="0.3"/>
  <circle cx="4" cy="28" r="1" fill="#ffffff" opacity="0.2"/>
</svg>