<?xml version="1.0" encoding="UTF-8"?>
<svg xmlns="http://www.w3.org/2000/svg" viewBox="38 18 521 521">
  <defs>
    <style>
      .fi6 { fill: #e4e5e0; }
      .fi1 { fill: #1e2430; }
      .fi2 { fill: #eef2ef; }
      .fi7 { fill: #454a50; }
      .fi3 { fill: #fff; stroke: #000; stroke-miterlimit: 10; }
      .fi5 { fill: #fff; stroke: #1e2430; stroke-miterlimit: 10; }
    </style>
  </defs>
  <polygon class="fi6"
    points="77.22 144.84 77.22 411.5 298.33 534.17 519.44 411.5 519.44 144.84 298.33 23.17 77.22 144.84" />
  <polygon class="fi1"
    points="102.44 160.24 102.44 396.1 298.65 504.53 494.85 396.1 494.85 160.24 298.65 51.8 102.44 160.24" />
  <polygon class="fi2"
    points="106.72 163.22 106.72 392.54 297.71 498.5 489.72 392.54 489.72 163.22 297.71 58.28 106.72 163.22" />
  <polygon class="fi7"
    points="112 165.5 112 389.61 298 493.17 485 389.61 485 165.5 298 62.94 112 165.5" />
  <circle class="fi5" cx="190.83" cy="202.22" r="14.61" />
  <rect class="fi3" x="178.67" y="223.39" width="26.78" height="126.11" />
  <path class="fi3"
    d="M242.89,187.51h25.5v34.94h30.83v24h-30.67l.17,67.5s1.33,11.83,9.71,12.38,8.75.31,13.69.12c.94-.04,7.5-.08,7.5-.08l-.4,22.08-26.83-.06s-27.92-3.11-29.5-31.11c-1.47-25.97,0-71.33,0-71.33h-21v-22.67h20.83l.17-35.78Z" />
  <polygon class="fi3"
    points="306.44 223.06 334.67 223.06 366.33 317.39 398.44 223.06 426.78 223.06 379.44 349.28 353.78 349.28 306.44 223.06" />
</svg>